<mxfile host="app.diagrams.net" modified="2020-07-04T09:28:24.142Z" agent="5.0 (Windows NT 10.0; Win64; x64) AppleWebKit/537.36 (KHTML, like Gecko) Chrome/83.0.4103.116 Safari/537.36" etag="IbyErxt0tJSCB79RXy_E" version="13.3.8" type="github">
  <diagram id="U-PU_A3t5DKLCgkuL9bZ" name="updatedERD">
    <mxGraphModel dx="1718" dy="520" grid="1" gridSize="10" guides="1" tooltips="1" connect="1" arrows="1" fold="1" page="1" pageScale="1" pageWidth="850" pageHeight="1100" math="0" shadow="0">
      <root>
        <mxCell id="0" />
        <mxCell id="1" parent="0" />
        <mxCell id="KDYzanzV5KnlVIZs8-1m-27" value="1" style="edgeStyle=orthogonalEdgeStyle;rounded=0;orthogonalLoop=1;jettySize=auto;html=1;" parent="1" source="KDYzanzV5KnlVIZs8-1m-1" target="KDYzanzV5KnlVIZs8-1m-24" edge="1">
          <mxGeometry relative="1" as="geometry">
            <Array as="points">
              <mxPoint x="420" y="455" />
              <mxPoint x="420" y="455" />
            </Array>
          </mxGeometry>
        </mxCell>
        <mxCell id="KDYzanzV5KnlVIZs8-1m-45" value="1" style="edgeStyle=orthogonalEdgeStyle;rounded=0;orthogonalLoop=1;jettySize=auto;html=1;entryX=1;entryY=0.5;entryDx=0;entryDy=0;" parent="1" source="KDYzanzV5KnlVIZs8-1m-1" target="KDYzanzV5KnlVIZs8-1m-41" edge="1">
          <mxGeometry relative="1" as="geometry" />
        </mxCell>
        <mxCell id="KDYzanzV5KnlVIZs8-1m-60" value="1" style="edgeStyle=orthogonalEdgeStyle;rounded=0;orthogonalLoop=1;jettySize=auto;html=1;" parent="1" source="KDYzanzV5KnlVIZs8-1m-1" target="KDYzanzV5KnlVIZs8-1m-58" edge="1">
          <mxGeometry relative="1" as="geometry" />
        </mxCell>
        <mxCell id="KDYzanzV5KnlVIZs8-1m-1" value="ADMIN" style="rounded=0;whiteSpace=wrap;html=1;" parent="1" vertex="1">
          <mxGeometry x="510" y="440" width="90" height="30" as="geometry" />
        </mxCell>
        <mxCell id="KDYzanzV5KnlVIZs8-1m-66" style="edgeStyle=orthogonalEdgeStyle;rounded=0;orthogonalLoop=1;jettySize=auto;html=1;entryX=1;entryY=1;entryDx=0;entryDy=0;" parent="1" source="KDYzanzV5KnlVIZs8-1m-2" target="KDYzanzV5KnlVIZs8-1m-62" edge="1">
          <mxGeometry relative="1" as="geometry" />
        </mxCell>
        <mxCell id="KDYzanzV5KnlVIZs8-1m-2" value="PRODUCT" style="rounded=0;whiteSpace=wrap;html=1;" parent="1" vertex="1">
          <mxGeometry x="810" y="390" width="120" height="60" as="geometry" />
        </mxCell>
        <mxCell id="KDYzanzV5KnlVIZs8-1m-3" value="CLIENT" style="rounded=0;whiteSpace=wrap;html=1;" parent="1" vertex="1">
          <mxGeometry x="140" y="440" width="100" height="40" as="geometry" />
        </mxCell>
        <mxCell id="KDYzanzV5KnlVIZs8-1m-4" value="TRANSPORT" style="rounded=0;whiteSpace=wrap;html=1;" parent="1" vertex="1">
          <mxGeometry x="360" y="600" width="110" height="40" as="geometry" />
        </mxCell>
        <mxCell id="KDYzanzV5KnlVIZs8-1m-55" style="edgeStyle=orthogonalEdgeStyle;rounded=0;orthogonalLoop=1;jettySize=auto;html=1;entryX=0.5;entryY=0;entryDx=0;entryDy=0;" parent="1" source="KDYzanzV5KnlVIZs8-1m-6" target="KDYzanzV5KnlVIZs8-1m-54" edge="1">
          <mxGeometry relative="1" as="geometry" />
        </mxCell>
        <mxCell id="KDYzanzV5KnlVIZs8-1m-81" value="M" style="edgeLabel;html=1;align=center;verticalAlign=middle;resizable=0;points=[];" parent="KDYzanzV5KnlVIZs8-1m-55" vertex="1" connectable="0">
          <mxGeometry x="0.1808" y="-2" relative="1" as="geometry">
            <mxPoint as="offset" />
          </mxGeometry>
        </mxCell>
        <mxCell id="KDYzanzV5KnlVIZs8-1m-80" style="edgeStyle=orthogonalEdgeStyle;rounded=0;orthogonalLoop=1;jettySize=auto;html=1;entryX=0.5;entryY=0;entryDx=0;entryDy=0;" parent="1" source="KDYzanzV5KnlVIZs8-1m-6" target="KDYzanzV5KnlVIZs8-1m-49" edge="1">
          <mxGeometry relative="1" as="geometry" />
        </mxCell>
        <mxCell id="KDYzanzV5KnlVIZs8-1m-6" value="MILK CENTER" style="rounded=0;whiteSpace=wrap;html=1;" parent="1" vertex="1">
          <mxGeometry x="412.5" y="190" width="107.5" height="40" as="geometry" />
        </mxCell>
        <mxCell id="KDYzanzV5KnlVIZs8-1m-15" style="edgeStyle=orthogonalEdgeStyle;rounded=0;orthogonalLoop=1;jettySize=auto;html=1;" parent="1" source="KDYzanzV5KnlVIZs8-1m-8" target="KDYzanzV5KnlVIZs8-1m-3" edge="1">
          <mxGeometry relative="1" as="geometry" />
        </mxCell>
        <mxCell id="KDYzanzV5KnlVIZs8-1m-8" value="EMAIL" style="ellipse;whiteSpace=wrap;html=1;" parent="1" vertex="1">
          <mxGeometry x="10" y="340" width="110" height="40" as="geometry" />
        </mxCell>
        <mxCell id="KDYzanzV5KnlVIZs8-1m-16" style="edgeStyle=orthogonalEdgeStyle;rounded=0;orthogonalLoop=1;jettySize=auto;html=1;entryX=0.32;entryY=0.025;entryDx=0;entryDy=0;entryPerimeter=0;" parent="1" source="KDYzanzV5KnlVIZs8-1m-9" target="KDYzanzV5KnlVIZs8-1m-3" edge="1">
          <mxGeometry relative="1" as="geometry" />
        </mxCell>
        <mxCell id="KDYzanzV5KnlVIZs8-1m-9" value="BILLS" style="ellipse;whiteSpace=wrap;html=1;" parent="1" vertex="1">
          <mxGeometry x="-50" y="400" width="110" height="40" as="geometry" />
        </mxCell>
        <mxCell id="KDYzanzV5KnlVIZs8-1m-17" style="edgeStyle=orthogonalEdgeStyle;rounded=0;orthogonalLoop=1;jettySize=auto;html=1;entryX=0;entryY=0.5;entryDx=0;entryDy=0;" parent="1" source="KDYzanzV5KnlVIZs8-1m-10" target="KDYzanzV5KnlVIZs8-1m-3" edge="1">
          <mxGeometry relative="1" as="geometry">
            <Array as="points">
              <mxPoint x="140" y="465" />
            </Array>
          </mxGeometry>
        </mxCell>
        <mxCell id="KDYzanzV5KnlVIZs8-1m-10" value="ADDRESS" style="ellipse;whiteSpace=wrap;html=1;" parent="1" vertex="1">
          <mxGeometry x="-60" y="450" width="110" height="30" as="geometry" />
        </mxCell>
        <mxCell id="KDYzanzV5KnlVIZs8-1m-18" style="edgeStyle=orthogonalEdgeStyle;rounded=0;orthogonalLoop=1;jettySize=auto;html=1;entryX=0.25;entryY=1;entryDx=0;entryDy=0;" parent="1" source="KDYzanzV5KnlVIZs8-1m-11" target="KDYzanzV5KnlVIZs8-1m-3" edge="1">
          <mxGeometry relative="1" as="geometry">
            <Array as="points">
              <mxPoint x="140" y="515" />
              <mxPoint x="140" y="480" />
            </Array>
          </mxGeometry>
        </mxCell>
        <mxCell id="KDYzanzV5KnlVIZs8-1m-11" value="PHONE_NO" style="ellipse;whiteSpace=wrap;html=1;" parent="1" vertex="1">
          <mxGeometry x="-80" y="500" width="110" height="30" as="geometry" />
        </mxCell>
        <mxCell id="KDYzanzV5KnlVIZs8-1m-19" style="edgeStyle=orthogonalEdgeStyle;rounded=0;orthogonalLoop=1;jettySize=auto;html=1;entryX=0.5;entryY=1;entryDx=0;entryDy=0;" parent="1" source="KDYzanzV5KnlVIZs8-1m-12" target="KDYzanzV5KnlVIZs8-1m-3" edge="1">
          <mxGeometry relative="1" as="geometry">
            <Array as="points">
              <mxPoint x="170" y="575" />
              <mxPoint x="170" y="480" />
            </Array>
          </mxGeometry>
        </mxCell>
        <mxCell id="KDYzanzV5KnlVIZs8-1m-12" value="PASSWORD" style="ellipse;whiteSpace=wrap;html=1;" parent="1" vertex="1">
          <mxGeometry x="-30" y="560" width="110" height="30" as="geometry" />
        </mxCell>
        <mxCell id="KDYzanzV5KnlVIZs8-1m-23" style="edgeStyle=orthogonalEdgeStyle;rounded=0;orthogonalLoop=1;jettySize=auto;html=1;" parent="1" source="KDYzanzV5KnlVIZs8-1m-13" edge="1">
          <mxGeometry relative="1" as="geometry">
            <mxPoint x="240" y="450" as="targetPoint" />
            <Array as="points">
              <mxPoint x="200" y="645" />
              <mxPoint x="200" y="480" />
              <mxPoint x="240" y="480" />
            </Array>
          </mxGeometry>
        </mxCell>
        <mxCell id="KDYzanzV5KnlVIZs8-1m-13" value="NAME" style="ellipse;whiteSpace=wrap;html=1;" parent="1" vertex="1">
          <mxGeometry x="40" y="630" width="110" height="30" as="geometry" />
        </mxCell>
        <mxCell id="KDYzanzV5KnlVIZs8-1m-25" value="M" style="edgeStyle=orthogonalEdgeStyle;rounded=0;orthogonalLoop=1;jettySize=auto;html=1;" parent="1" source="KDYzanzV5KnlVIZs8-1m-24" target="KDYzanzV5KnlVIZs8-1m-3" edge="1">
          <mxGeometry relative="1" as="geometry" />
        </mxCell>
        <mxCell id="KDYzanzV5KnlVIZs8-1m-24" value="MANAGES" style="rhombus;whiteSpace=wrap;html=1;" parent="1" vertex="1">
          <mxGeometry x="330" y="437.5" width="70" height="45" as="geometry" />
        </mxCell>
        <mxCell id="KDYzanzV5KnlVIZs8-1m-33" style="edgeStyle=orthogonalEdgeStyle;rounded=0;orthogonalLoop=1;jettySize=auto;html=1;entryX=0;entryY=0.5;entryDx=0;entryDy=0;" parent="1" source="KDYzanzV5KnlVIZs8-1m-28" target="KDYzanzV5KnlVIZs8-1m-4" edge="1">
          <mxGeometry relative="1" as="geometry" />
        </mxCell>
        <mxCell id="KDYzanzV5KnlVIZs8-1m-28" value="VEHICLE_NAME" style="ellipse;whiteSpace=wrap;html=1;" parent="1" vertex="1">
          <mxGeometry x="160" y="680" width="110" height="40" as="geometry" />
        </mxCell>
        <mxCell id="KDYzanzV5KnlVIZs8-1m-34" style="edgeStyle=orthogonalEdgeStyle;rounded=0;orthogonalLoop=1;jettySize=auto;html=1;entryX=0.25;entryY=1;entryDx=0;entryDy=0;" parent="1" source="KDYzanzV5KnlVIZs8-1m-29" target="KDYzanzV5KnlVIZs8-1m-4" edge="1">
          <mxGeometry relative="1" as="geometry" />
        </mxCell>
        <mxCell id="KDYzanzV5KnlVIZs8-1m-29" value="PLATE_NO" style="ellipse;whiteSpace=wrap;html=1;" parent="1" vertex="1">
          <mxGeometry x="310" y="730" width="110" height="40" as="geometry" />
        </mxCell>
        <mxCell id="KDYzanzV5KnlVIZs8-1m-40" style="edgeStyle=orthogonalEdgeStyle;rounded=0;orthogonalLoop=1;jettySize=auto;html=1;entryX=0.75;entryY=1;entryDx=0;entryDy=0;" parent="1" source="KDYzanzV5KnlVIZs8-1m-30" target="KDYzanzV5KnlVIZs8-1m-4" edge="1">
          <mxGeometry relative="1" as="geometry" />
        </mxCell>
        <mxCell id="KDYzanzV5KnlVIZs8-1m-30" value="DELIVERY_ROUTE" style="ellipse;whiteSpace=wrap;html=1;" parent="1" vertex="1">
          <mxGeometry x="440" y="740" width="110" height="40" as="geometry" />
        </mxCell>
        <mxCell id="KDYzanzV5KnlVIZs8-1m-39" style="edgeStyle=orthogonalEdgeStyle;rounded=0;orthogonalLoop=1;jettySize=auto;html=1;entryX=1;entryY=0.25;entryDx=0;entryDy=0;" parent="1" source="KDYzanzV5KnlVIZs8-1m-31" target="KDYzanzV5KnlVIZs8-1m-4" edge="1">
          <mxGeometry relative="1" as="geometry" />
        </mxCell>
        <mxCell id="KDYzanzV5KnlVIZs8-1m-31" value="DRIVER" style="ellipse;whiteSpace=wrap;html=1;" parent="1" vertex="1">
          <mxGeometry x="560" y="700" width="110" height="40" as="geometry" />
        </mxCell>
        <mxCell id="KDYzanzV5KnlVIZs8-1m-42" value="M" style="edgeStyle=orthogonalEdgeStyle;rounded=0;orthogonalLoop=1;jettySize=auto;html=1;entryX=0.436;entryY=-0.1;entryDx=0;entryDy=0;entryPerimeter=0;" parent="1" source="KDYzanzV5KnlVIZs8-1m-41" target="KDYzanzV5KnlVIZs8-1m-4" edge="1">
          <mxGeometry relative="1" as="geometry" />
        </mxCell>
        <mxCell id="KDYzanzV5KnlVIZs8-1m-41" value="MANAGES" style="rhombus;whiteSpace=wrap;html=1;" parent="1" vertex="1">
          <mxGeometry x="425" y="500" width="95" height="50" as="geometry" />
        </mxCell>
        <mxCell id="KDYzanzV5KnlVIZs8-1m-49" value="CENTER_NAME" style="ellipse;whiteSpace=wrap;html=1;" parent="1" vertex="1">
          <mxGeometry x="210" y="230" width="110" height="50" as="geometry" />
        </mxCell>
        <mxCell id="KDYzanzV5KnlVIZs8-1m-53" style="edgeStyle=orthogonalEdgeStyle;rounded=0;orthogonalLoop=1;jettySize=auto;html=1;entryX=0.75;entryY=0;entryDx=0;entryDy=0;" parent="1" source="KDYzanzV5KnlVIZs8-1m-50" target="KDYzanzV5KnlVIZs8-1m-6" edge="1">
          <mxGeometry relative="1" as="geometry" />
        </mxCell>
        <mxCell id="KDYzanzV5KnlVIZs8-1m-50" value="LOCATION" style="ellipse;whiteSpace=wrap;html=1;" parent="1" vertex="1">
          <mxGeometry x="540" y="100" width="110" height="50" as="geometry" />
        </mxCell>
        <mxCell id="KDYzanzV5KnlVIZs8-1m-56" value="1" style="edgeStyle=orthogonalEdgeStyle;rounded=0;orthogonalLoop=1;jettySize=auto;html=1;entryX=0.25;entryY=0;entryDx=0;entryDy=0;" parent="1" source="KDYzanzV5KnlVIZs8-1m-54" target="KDYzanzV5KnlVIZs8-1m-1" edge="1">
          <mxGeometry relative="1" as="geometry" />
        </mxCell>
        <mxCell id="KDYzanzV5KnlVIZs8-1m-54" value="MANAGES" style="rhombus;whiteSpace=wrap;html=1;" parent="1" vertex="1">
          <mxGeometry x="500" y="320" width="70" height="60" as="geometry" />
        </mxCell>
        <mxCell id="KDYzanzV5KnlVIZs8-1m-61" value="M" style="edgeStyle=orthogonalEdgeStyle;rounded=0;orthogonalLoop=1;jettySize=auto;html=1;" parent="1" source="KDYzanzV5KnlVIZs8-1m-58" target="KDYzanzV5KnlVIZs8-1m-2" edge="1">
          <mxGeometry relative="1" as="geometry" />
        </mxCell>
        <mxCell id="KDYzanzV5KnlVIZs8-1m-58" value="MANAGES" style="rhombus;whiteSpace=wrap;html=1;" parent="1" vertex="1">
          <mxGeometry x="670" y="420" width="60" height="60" as="geometry" />
        </mxCell>
        <mxCell id="KDYzanzV5KnlVIZs8-1m-62" value="PROD_NAME" style="ellipse;whiteSpace=wrap;html=1;" parent="1" vertex="1">
          <mxGeometry x="770" y="260" width="120" height="40" as="geometry" />
        </mxCell>
        <mxCell id="KDYzanzV5KnlVIZs8-1m-67" style="edgeStyle=orthogonalEdgeStyle;rounded=0;orthogonalLoop=1;jettySize=auto;html=1;entryX=0.842;entryY=-0.05;entryDx=0;entryDy=0;entryPerimeter=0;" parent="1" target="KDYzanzV5KnlVIZs8-1m-2" edge="1">
          <mxGeometry relative="1" as="geometry">
            <mxPoint x="940" y="280" as="sourcePoint" />
          </mxGeometry>
        </mxCell>
        <mxCell id="KDYzanzV5KnlVIZs8-1m-68" style="edgeStyle=orthogonalEdgeStyle;rounded=0;orthogonalLoop=1;jettySize=auto;html=1;entryX=1;entryY=0.5;entryDx=0;entryDy=0;" parent="1" source="KDYzanzV5KnlVIZs8-1m-64" target="KDYzanzV5KnlVIZs8-1m-2" edge="1">
          <mxGeometry relative="1" as="geometry" />
        </mxCell>
        <mxCell id="KDYzanzV5KnlVIZs8-1m-64" value="CURDNESS" style="ellipse;whiteSpace=wrap;html=1;" parent="1" vertex="1">
          <mxGeometry x="1020" y="400" width="120" height="40" as="geometry" />
        </mxCell>
        <mxCell id="KDYzanzV5KnlVIZs8-1m-69" style="edgeStyle=orthogonalEdgeStyle;rounded=0;orthogonalLoop=1;jettySize=auto;html=1;entryX=0.667;entryY=1.017;entryDx=0;entryDy=0;entryPerimeter=0;" parent="1" source="KDYzanzV5KnlVIZs8-1m-65" target="KDYzanzV5KnlVIZs8-1m-2" edge="1">
          <mxGeometry relative="1" as="geometry" />
        </mxCell>
        <mxCell id="KDYzanzV5KnlVIZs8-1m-65" value="PH_EVEL" style="ellipse;whiteSpace=wrap;html=1;" parent="1" vertex="1">
          <mxGeometry x="830" y="540" width="120" height="40" as="geometry" />
        </mxCell>
        <mxCell id="KDYzanzV5KnlVIZs8-1m-70" value="QUANTITY_LEVEL" style="ellipse;whiteSpace=wrap;html=1;" parent="1" vertex="1">
          <mxGeometry x="940" y="260" width="100" height="40" as="geometry" />
        </mxCell>
        <mxCell id="KDYzanzV5KnlVIZs8-1m-72" style="edgeStyle=orthogonalEdgeStyle;rounded=0;orthogonalLoop=1;jettySize=auto;html=1;entryX=1;entryY=1;entryDx=0;entryDy=0;" parent="1" source="KDYzanzV5KnlVIZs8-1m-71" target="KDYzanzV5KnlVIZs8-1m-2" edge="1">
          <mxGeometry relative="1" as="geometry" />
        </mxCell>
        <mxCell id="KDYzanzV5KnlVIZs8-1m-71" value="TEMPERATURE" style="ellipse;whiteSpace=wrap;html=1;" parent="1" vertex="1">
          <mxGeometry x="1030" y="510" width="120" height="40" as="geometry" />
        </mxCell>
        <mxCell id="KDYzanzV5KnlVIZs8-1m-83" style="edgeStyle=orthogonalEdgeStyle;rounded=0;orthogonalLoop=1;jettySize=auto;html=1;entryX=0.75;entryY=1;entryDx=0;entryDy=0;" parent="1" source="KDYzanzV5KnlVIZs8-1m-82" target="KDYzanzV5KnlVIZs8-1m-1" edge="1">
          <mxGeometry relative="1" as="geometry" />
        </mxCell>
        <mxCell id="KDYzanzV5KnlVIZs8-1m-82" value="USER_1D" style="ellipse;whiteSpace=wrap;html=1;" parent="1" vertex="1">
          <mxGeometry x="660" y="540" width="80" height="50" as="geometry" />
        </mxCell>
        <mxCell id="KDYzanzV5KnlVIZs8-1m-85" style="edgeStyle=orthogonalEdgeStyle;rounded=0;orthogonalLoop=1;jettySize=auto;html=1;entryX=0.856;entryY=-0.1;entryDx=0;entryDy=0;entryPerimeter=0;" parent="1" source="KDYzanzV5KnlVIZs8-1m-84" target="KDYzanzV5KnlVIZs8-1m-1" edge="1">
          <mxGeometry relative="1" as="geometry" />
        </mxCell>
        <mxCell id="KDYzanzV5KnlVIZs8-1m-84" value="PASSWORD" style="ellipse;whiteSpace=wrap;html=1;" parent="1" vertex="1">
          <mxGeometry x="630" y="335" width="90" height="35" as="geometry" />
        </mxCell>
        <mxCell id="BvDbilABgeJx4b24IBEB-1" value="Text" style="text;html=1;align=center;verticalAlign=middle;resizable=0;points=[];autosize=1;" vertex="1" parent="1">
          <mxGeometry x="-83" y="189" width="40" height="20" as="geometry" />
        </mxCell>
      </root>
    </mxGraphModel>
  </diagram>
</mxfile>
